<svg width="32" height="32" viewBox="0 0 32 32" fill="none" xmlns="http://www.w3.org/2000/svg">
<rect width="32" height="32" fill="#1F1F1F"/>
<path d="M24.1206 21.7778C23.558 22.3511 22.2472 23.6868 21.5783 25.5896C21.1577 24.4713 20.3311 23.1727 18.7242 21.9236C17.6545 21.092 16.7441 20.5849 15.8727 20.2805C15.4321 20.1265 15.007 20.0264 14.5835 19.9609C15.6657 19.4034 16.8172 19.1576 17.8394 19.1233C17.9245 19.1221 18.0107 19.1207 18.0983 19.119L18.2468 19.1161L18.2454 18.9675L18.2402 18.4355L18.2388 18.287H18.0902C18.0011 18.287 17.911 18.2884 17.8199 18.2914C15.6964 18.3203 14.4097 18.18 12.4057 17.6895L16.1001 7.5201L16.2789 7.02775L15.8666 7.3508L10.1423 11.8354L12.4592 3.0382L12.5718 2.61067L12.2223 2.88142L6.15476 7.58164L6.12614 7.60382L6.11078 7.6366L2.86416 14.5686L2.63473 15.0584L3.08368 14.7567L7.33363 11.9002L3.6649 20.3167L3.46097 20.7845L3.8856 20.5014L10.1808 16.3046L9.33582 20.3996L9.30109 20.5679L9.47252 20.5796L9.77656 20.6003C10.6653 20.6609 11.4524 20.6638 12.1518 20.6664L12.1532 20.6664C12.1794 20.6665 12.2054 20.6666 12.2313 20.6667C10.7472 22.1841 9.82308 24.5168 9.76849 27.9319L9.76605 28.0843H9.91847H10.4519H10.5808L10.6002 27.9568C11.0433 25.0471 12.9762 23.9568 14.3168 23.8689C14.8126 23.8364 15.1856 23.9497 15.4801 24.1473C15.7809 24.3491 16.0281 24.6581 16.2327 25.0588C16.6487 25.8732 16.8416 26.9213 16.9946 27.9541L17.0135 28.0821H17.1429H17.6833H17.8333V27.9321C17.8333 26.3676 18.0786 25.314 18.3349 24.486C18.3908 24.3056 18.4502 24.1258 18.5081 23.9508L18.5086 23.9492C18.579 23.736 18.6474 23.5293 18.7021 23.3421C18.7303 23.2459 18.7565 23.1496 18.7799 23.0531C21.0006 25.0464 21.1693 27.0325 21.1693 27.9385V28.0885H21.3193H21.8514H22.0014V27.9385C22.0014 25.6271 23.3325 23.8596 24.2323 22.8688C24.3494 23.448 24.5624 24.0512 24.821 24.784L24.825 24.7954L24.8431 24.8465C24.8775 24.944 24.9123 25.0423 24.9473 25.1407L24.9483 25.1437C25.1259 25.6444 25.3054 26.1504 25.4491 26.6168C25.6253 27.1884 25.7301 27.6471 25.7301 27.9385V28.0885H25.8801H26.4122H26.5622V27.9385C26.5622 24.8168 27.0728 23.0716 27.5167 21.5542L27.5171 21.553L27.5177 21.5508C27.6532 21.0878 27.7836 20.6421 27.8909 20.1854C28.3636 18.174 28.3377 16.0881 26.5331 11.519L26.3548 11.0676L26.2543 10.8131L26.0938 11.0347L24.5042 13.2299L22.1085 10.7487L21.7633 10.3911L21.8531 10.88L22.6426 15.1786L19.9525 16.6819L19.7463 16.7971L19.9383 16.9348L20.2788 17.1788C21.2068 17.844 21.9932 18.1055 22.7203 18.1658C23.2901 18.2131 23.813 18.1329 24.28 18.0614L24.286 18.0605C24.3959 18.0436 24.5023 18.0273 24.6066 18.013L24.7552 17.9925L24.7347 17.8439L24.6622 17.3168L24.6418 17.1682L24.4932 17.1887C24.3708 17.2055 24.2518 17.2236 24.136 17.2412L24.1356 17.2413C23.6689 17.3123 23.2527 17.375 22.789 17.3366C22.365 17.3014 21.892 17.1785 21.3305 16.865L23.4749 15.6667L23.5687 15.6143L23.5493 15.5087L23.0798 12.9526L24.4712 14.3937L24.5956 14.5225L24.7006 14.3775L26.0335 12.5367C27.523 16.5086 27.4784 18.3033 27.0809 19.9951C26.9818 20.4165 26.8582 20.8387 26.725 21.2934L26.7248 21.2943C26.4168 22.346 26.0629 23.554 25.8714 25.258C25.8247 25.1254 25.7779 24.9934 25.7317 24.8631L25.7314 24.8623C25.6964 24.7636 25.6617 24.6659 25.6277 24.5695L25.6219 24.5529C25.2028 23.3655 24.9659 22.6803 24.9659 21.9335V21.273V20.9006L24.7078 21.169L24.25 21.6452C24.2141 21.6825 24.1718 21.7256 24.1233 21.775L24.1206 21.7778ZM11.1013 14.6909L5.35498 18.5218L9.03023 10.0903L9.23559 9.61923L8.80905 9.90592L4.66097 12.694L6.79449 8.13862L11.1426 4.7704L8.82095 13.5853L8.70733 14.0167L9.05851 13.7415L14.5046 9.47482L11.366 18.1146L11.3095 18.2701L11.4697 18.3111L11.754 18.3839C12.8889 18.6747 13.8016 18.8655 14.7117 18.9808C14.1904 19.2051 13.6761 19.4904 13.1859 19.846C12.837 19.836 12.4854 19.835 12.1199 19.8339H12.1191C11.5651 19.8322 10.9776 19.8304 10.3096 19.7979L11.3314 14.846L11.4052 14.4883L11.1013 14.6909ZM17.2518 25.33C17.1709 25.1045 17.079 24.8863 16.9737 24.6803C16.7271 24.1973 16.397 23.7605 15.9437 23.4563C15.484 23.1479 14.9257 22.9951 14.2624 23.0386C13.1757 23.1099 11.919 23.7037 10.9643 24.9694C11.4492 22.9502 12.3169 21.5863 13.4515 20.6884C14.2027 20.7231 14.8811 20.8155 15.5983 21.066C16.3206 21.3184 17.1018 21.7383 18.0429 22.4497C18.0233 22.6517 17.9749 22.8645 17.9035 23.1085C17.8499 23.2917 17.7901 23.4721 17.7236 23.6725L17.7234 23.6733C17.6666 23.8445 17.6052 24.0295 17.5401 24.2399C17.4397 24.5639 17.3391 24.923 17.2518 25.33Z" fill="#29BD64" stroke="#29BD64" stroke-width="0.3"/>
</svg>
