<svg width="32" height="32" viewBox="0 0 32 32" fill="none" xmlns="http://www.w3.org/2000/svg">
<mask id="mask0_463_24" style="mask-type:alpha" maskUnits="userSpaceOnUse" x="0" y="0" width="32" height="32">
<rect width="32" height="32" fill="#FF264D"/>
</mask>
<g mask="url(#mask0_463_24)">
<rect width="32" height="32" fill="#FF264D"/>
<path d="M-10.6778 37.8283C-6.5876 39.5354 -3.58237 41.7304 -1.4082 43.8397C-1.4172 43.8712 -1.42627 43.9026 -1.43541 43.9341C-1.60956 44.534 -1.82762 45.1988 -2.05601 45.895C-2.24218 46.4626 -2.43521 47.0511 -2.61689 47.6423C-3.45466 50.3686 -4.25531 53.8398 -4.25531 58.9792H-5.9973C-6.48979 55.6296 -7.11929 52.1504 -8.50076 49.425C-9.18483 48.0755 -10.0297 46.997 -11.0881 46.2816C-12.1334 45.575 -13.4432 45.1839 -15.1388 45.2959C-19.6862 45.5963 -26.103 49.3087 -27.5655 58.9862H-29.2851C-29.1117 48.0543 -26.198 40.6392 -21.5794 35.821C-17.4052 36.0023 -13.7037 36.6817 -10.6778 37.8283Z" fill="white"/>
<path d="M-29.3975 7.97453L-21.5626 -22L-36.512 5.57211L-49 34.4391L-27.7279 20.1498L-30.6897 34.6122L-30.4546 34.6284C-22.5348 33.8165 -15.4337 34.4303 -10.1452 36.4374L-10.1341 36.4416L-10.1231 36.4462C-5.67042 38.3027 -2.43189 40.7199 -0.116541 43.0269C6.90729 49.534 7.46517 56.0046 7.46517 59H9.18033C9.18033 50.6974 14.2972 44.5321 17.1646 41.4813C17.4685 43.6244 18.231 45.801 19.2216 48.6289L19.2797 48.7949C19.3892 49.1075 19.5 49.4223 19.6113 49.7384L19.6191 49.7605L19.6194 49.7613L19.6198 49.7624C20.1911 51.3856 20.7728 53.0382 21.2394 54.5637C21.8068 56.4183 22.1666 57.9719 22.1666 59H23.8818C23.8818 48.7909 25.5425 43.0713 26.9793 38.123C27.4173 36.6143 27.8346 35.1773 28.1776 33.7065C29.6709 27.3036 29.6177 20.6348 23.8219 5.84861L23.2472 4.38251L17.7846 11.9835L9.66118 3.50605L12.2688 17.8111L3.2951 22.8639L4.39277 23.6567C7.32227 25.7726 9.77528 26.5853 12.0209 26.7729C13.8009 26.9216 15.4396 26.6686 16.9552 26.4346C17.3086 26.38 17.6553 26.3265 17.9956 26.2793L17.9972 26.2843C19.6772 25.952 20.6029 25.5759 21.238 25.3178L21.3018 25.2919C21.3269 25.2817 21.3517 25.2717 21.376 25.2619L21.9254 26.6461L21.8111 26.6923C20.4848 27.229 18.1249 28.184 11.5689 28.4381C11.138 28.4548 10.7196 28.4633 10.3138 28.4643C6.45743 28.6895 2.77052 28.6887 -2.6776 28.6873L-3.99465 28.6871C-11.036 28.7841 -15.067 27.7717 -21.819 26.076L-21.9057 26.0543L-9.81346 -7.48513L-29.3975 7.97453Z" fill="white"/>
</g>
</svg>
