<svg width="489" height="163" viewBox="0 0 489 163" fill="none" xmlns="http://www.w3.org/2000/svg">
<path d="M77.7042 120.395C85.9978 123.83 92.0914 128.248 96.4999 132.492C96.4816 132.556 96.4633 132.619 96.4447 132.682C96.0916 133.889 95.6494 135.227 95.1864 136.628C94.8089 137.77 94.4175 138.955 94.0491 140.144C92.3504 145.631 90.7269 152.616 90.7269 162.958H87.1948C86.1962 156.217 84.9198 149.216 82.1186 143.732C80.7316 141.016 79.0183 138.846 76.8724 137.406C74.7529 135.984 72.097 135.197 68.6589 135.423C59.4383 136.027 46.4274 143.498 43.4619 162.972H39.9751C40.3268 140.973 46.2347 126.052 55.5995 116.356C64.0634 116.721 71.5688 118.088 77.7042 120.395Z" fill="white"/>
<path d="M39.7472 60.3191L55.6337 0L25.3214 55.4846L0 113.575L43.1325 84.8199L37.127 113.923L37.6038 113.956C53.6624 112.322 68.061 113.557 78.7842 117.596L78.8067 117.605L78.829 117.614C87.8576 121.35 94.4242 126.214 99.1189 130.857C113.361 143.951 114.492 156.972 114.492 163H117.97C117.97 146.292 128.345 133.886 134.159 127.746C134.775 132.059 136.321 136.439 138.33 142.13L138.448 142.464C138.67 143.093 138.895 143.726 139.12 144.362L139.136 144.407L139.137 144.408L139.137 144.411C140.296 147.677 141.475 151.003 142.422 154.073C143.572 157.805 144.302 160.931 144.302 163H147.779C147.779 142.456 151.147 130.946 154.06 120.988C154.948 117.952 155.794 115.06 156.49 112.101C159.518 99.2159 159.41 85.7959 147.658 56.041L146.493 53.0907L135.416 68.3865L118.945 51.327L124.232 80.1136L106.037 90.2817L108.262 91.8771C114.202 96.135 119.176 97.7704 123.73 98.1479C127.339 98.4472 130.661 97.938 133.735 97.4672C134.451 97.3574 135.154 97.2496 135.844 97.1547L135.847 97.1647C139.254 96.4961 141.131 95.7391 142.419 95.2198L142.548 95.1677C142.599 95.1471 142.649 95.127 142.698 95.1073L143.813 97.8927L143.581 97.9857C140.891 99.0658 136.106 100.988 122.813 101.499C121.939 101.533 121.091 101.55 120.268 101.552C112.449 102.005 104.973 102.003 93.926 102L91.2555 102C76.9781 102.195 68.8045 100.158 55.1137 96.7456L54.938 96.7018L79.4569 29.2089L39.7472 60.3191Z" fill="white"/>
<path d="M487.352 96.624L478.136 111.072L488.312 127.008H482.6L475.304 115.536L468.008 127.008H462.344L472.472 111.072L463.304 96.624H468.968L475.304 106.56L481.64 96.624H487.352Z" fill="white"/>
<path d="M445.745 96C454.385 96 461.393 102.864 461.393 111.84C461.393 120.816 454.385 127.68 445.745 127.68H445.601C436.961 127.68 429.953 120.816 429.953 111.84C429.953 102.864 436.913 96 445.601 96H445.745ZM453.425 119.712C455.585 117.504 456.593 114.96 456.593 111.84C456.593 108.672 455.585 106.176 453.425 103.92C451.361 101.76 448.577 100.56 445.649 100.512C442.721 100.56 439.937 101.76 437.873 103.92C435.713 106.128 434.753 108.672 434.753 111.84C434.753 114.96 435.713 117.504 437.873 119.712C439.937 121.872 442.721 123.12 445.649 123.168C448.577 123.12 451.361 121.872 453.425 119.712Z" fill="white"/>
<path d="M411.877 113.472V127.056H407.125V96.624H427.045V101.088H411.877V108.96H424.357V113.472H411.877Z" fill="white"/>
<path d="M402.347 107.664C402.347 111.168 400.763 114.192 398.267 116.208L402.347 127.008H397.211L393.947 118.32C392.987 118.56 391.979 118.704 390.971 118.704H385.019V127.008H380.219V96.624H390.971C397.259 96.624 402.347 101.376 402.347 107.664ZM390.971 114.192C392.747 114.096 394.331 113.376 395.531 112.176C396.827 110.88 397.547 109.488 397.547 107.664C397.547 105.84 396.827 104.448 395.531 103.152C394.331 101.952 392.747 101.184 390.971 101.136H385.019V114.192H390.971Z" fill="white"/>
<path d="M375.412 127.008H354.484V96.624H374.5V101.136H359.284V108.96H371.812V113.472H359.284V122.544H375.412V127.008Z" fill="white"/>
<path d="M324.156 127.008V96.624H333.708C342.54 96.624 349.692 103.008 349.692 111.84C349.692 120.624 342.54 127.008 333.708 127.008H324.156ZM328.956 101.136V122.544H333.564C336.588 122.496 339.372 121.44 341.532 119.28C343.692 117.12 344.892 114.864 344.892 111.84C344.892 108.768 343.692 106.512 341.532 104.352C339.372 102.24 336.588 101.184 333.564 101.136H328.956Z" fill="white"/>
<path d="M313.111 118.8V96.624H317.911V127.008H313.111L297.175 104.832V127.008H292.375V96.624H297.175L313.111 118.8Z" fill="white"/>
<path d="M281.536 115.632V96.624H286.336V115.632C286.336 122.304 280.96 127.68 274.288 127.68H274C267.376 127.68 262 122.256 262 115.632V96.624H266.8V115.632C266.8 119.76 270.064 123.072 274.144 123.168C278.224 123.072 281.536 119.76 281.536 115.632Z" fill="white"/>
<path d="M251.121 108.96V96.624H255.921V127.008H251.121V113.472L236.097 119.472V127.008H231.297V96.624H236.097V114.96L251.121 108.96Z" fill="white"/>
<path d="M226 96.624V101.232H216.4V127.008H211.6V101.232H202V96.624H226Z" fill="white"/>
<path d="M180.5 144L180.5 79" stroke="white"/>
</svg>
