<svg width="517" height="209" viewBox="0 0 517 209" fill="none" xmlns="http://www.w3.org/2000/svg">
<path fill-rule="evenodd" clip-rule="evenodd" d="M83.8782 23L67.9917 83.3191L107.701 52.2089L83.1825 119.702C96.9794 123.141 105.549 124.122 119.887 123.926C120.474 123.907 121.056 123.897 121.631 123.897L121.664 127.375C121.091 127.386 120.526 127.395 119.969 127.403C112.324 127.658 103.584 129.689 95.6218 134.453C99.3304 134.829 102.983 135.534 106.814 136.872C112.384 138.818 118.242 142.072 125.173 147.46C136.92 156.592 142.154 166.093 144.457 173.797C148.354 160.067 157.822 150.418 161.763 146.401C162.079 146.08 162.359 145.794 162.598 145.546L165.591 142.434V146.751C165.591 151.834 167.21 156.481 169.934 164.198L169.972 164.306C170.195 164.937 170.421 165.576 170.65 166.221C171.452 168.483 172.279 170.814 173.034 173.078C174.103 159.595 176.738 150.598 179.01 142.843C179.878 139.876 180.694 137.09 181.349 134.305C184.062 122.759 184.256 110.554 173.821 83.2849L164.043 96.7888L152.692 85.0326L156.347 104.935L140.843 113.599C145.282 116.364 148.967 117.409 152.262 117.682C155.423 117.944 158.254 117.514 161.291 117.051C162.05 116.936 162.822 116.818 163.615 116.709L164.089 120.155C163.399 120.25 162.695 120.357 161.979 120.467C158.905 120.938 155.583 121.447 151.974 121.148C147.421 120.77 142.447 119.135 136.507 114.877L134.281 113.282L152.477 103.114L147.189 74.327L163.661 91.3865L174.737 76.0907L175.902 79.041C187.654 108.796 187.762 122.216 184.734 135.101C184.039 138.06 183.193 140.952 182.305 143.988C179.391 153.946 176.024 165.456 176.024 186H172.546C172.546 183.931 171.816 180.805 170.666 177.073C169.719 174.001 168.539 170.673 167.38 167.405C167.149 166.755 166.919 166.107 166.692 165.464L166.575 165.13C164.566 159.439 163.02 155.059 162.404 150.746C156.59 156.886 146.214 169.292 146.214 186H142.737C142.737 179.723 141.51 165.861 125.526 152.23C125.32 153.378 125.029 154.522 124.689 155.682C124.336 156.889 123.894 158.227 123.431 159.628C123.053 160.77 122.662 161.955 122.294 163.144C120.595 168.631 118.971 175.616 118.971 185.958H115.439C114.441 179.218 113.164 172.216 110.363 166.732C108.976 164.016 107.263 161.846 105.117 160.406C102.997 158.984 100.342 158.197 96.9034 158.423C87.6828 159.027 74.6719 166.498 71.7064 185.972H68.2196C68.5945 162.521 75.2834 147.112 85.7433 137.503C84.7972 137.496 83.8265 137.492 82.8299 137.489C78.2548 137.472 73.1362 137.453 67.3588 137.059L65.3715 136.923L71.377 107.82L28.2445 136.575L53.5659 78.4846L23 99.0289L44.2202 53.721L83.8782 23ZM89.8828 134.097C94.2647 130.873 98.9589 128.531 103.666 126.911C96.3692 126.256 89.5172 124.921 80.4598 122.601L78.6022 122.125L100.286 62.4366L61.9943 92.4357L77.9044 32.0267L47.0136 55.9563L31.4688 89.1465L61.5153 68.9513L36.1607 127.118L76.4946 100.228L69.5852 133.712C74.4553 133.983 78.6693 133.996 82.5999 134.008C85.1108 134.015 87.5061 134.023 89.8828 134.097ZM90.9923 137.617C82.2894 144.375 75.9637 155.092 73.0419 171.451C79.3046 160.42 88.773 155.47 96.6759 154.952C100.814 154.681 104.245 155.633 107.054 157.518C109.838 159.385 111.897 162.09 113.46 165.15C114.685 167.547 115.634 170.224 116.394 172.997C117.072 168.72 118.022 165.182 118.971 162.116C119.395 160.749 119.793 159.547 120.165 158.425C120.599 157.119 120.995 155.923 121.351 154.706C121.888 152.87 122.246 151.248 122.341 149.668C115.939 144.775 110.616 141.885 105.666 140.155C100.742 138.435 96.1021 137.833 90.9923 137.617Z" fill="#29BD64"/>
<path d="M244.776 132.6C244.344 132.6 243.912 132.408 243.576 132.072L239.832 128.328C239.592 128.088 239.4 127.752 239.4 127.368V113.4H243.768V128.28L253.512 118.536L256.536 121.512L245.976 132.072C245.64 132.408 245.208 132.6 244.776 132.6ZM239.4 106.248V101.352H243.768V107.304C243.768 107.88 244.248 108.36 244.872 108.36H256.104V112.68H245.4C244.68 112.68 244.392 112.392 243.912 111.912L240.168 108.168C239.64 107.64 239.4 106.968 239.4 106.248Z" fill="#29BD64"/>
<path d="M278.785 132.6V112.68L268.849 122.616L265.825 119.64L276.577 108.888C276.913 108.552 277.345 108.36 277.777 108.36C278.209 108.36 278.641 108.552 278.977 108.888L282.721 112.632C282.961 112.872 283.153 113.208 283.153 113.592V132.6H278.785ZM260.353 132.6V99H264.721V132.6H260.353Z" fill="#29BD64"/>
<path d="M293.338 132.6C292.906 132.6 292.474 132.408 292.138 132.072L288.394 128.328C288.154 128.088 287.962 127.752 287.962 127.368V108.36H292.33V128.28L302.074 118.536L305.098 121.512L294.538 132.072C294.202 132.408 293.77 132.6 293.338 132.6ZM306.202 132.6V108.36H310.57V132.6H306.202Z" fill="#29BD64"/>
<path d="M333.816 132.6V112.68L323.88 122.616L320.856 119.64L331.608 108.888C331.944 108.552 332.376 108.36 332.808 108.36C333.24 108.36 333.672 108.552 334.008 108.888L337.752 112.632C337.992 112.872 338.184 113.208 338.184 113.592V132.6H333.816ZM315.384 132.6V108.36H319.752V132.6H315.384Z" fill="#29BD64"/>
<path d="M349.378 132.6C348.658 132.6 347.986 132.312 347.506 131.832L343.762 128.088C343.234 127.56 342.994 126.888 342.994 126.168V113.592C342.994 113.208 343.186 112.872 343.426 112.632L347.17 108.888C347.506 108.552 347.938 108.36 348.37 108.36C348.802 108.36 349.234 108.552 349.57 108.888L360.898 120.216L357.874 123.192L347.362 112.68V127.224C347.362 127.8 347.842 128.28 348.466 128.28H361.378C362.002 128.28 362.482 127.8 362.482 127.224V99H366.85V126.168C366.85 126.888 366.61 127.56 366.082 128.088L362.338 131.832C361.858 132.312 361.186 132.6 360.466 132.6H349.378Z" fill="#29BD64"/>
<path d="M378.018 132.6C377.298 132.6 376.626 132.312 376.146 131.832L372.402 128.088C371.874 127.56 371.634 126.888 371.634 126.168V114.792C371.634 114.072 371.874 113.4 372.402 112.872L376.146 109.128C376.626 108.648 377.298 108.36 378.018 108.36H388.53C388.914 108.36 389.25 108.552 389.49 108.792L393.234 112.536C393.57 112.872 393.762 113.304 393.762 113.736C393.762 114.168 393.57 114.6 393.234 114.936L381.954 126.216L378.93 123.24L389.49 112.68H377.106C376.482 112.68 376.002 113.16 376.002 113.736V127.224C376.002 127.8 376.482 128.28 377.106 128.28H392.658V132.6H378.018Z" fill="#29BD64"/>
<path d="M397.603 114.792C397.603 114.072 397.843 113.4 398.371 112.872L402.115 109.128C402.595 108.648 403.267 108.36 403.987 108.36H415.603V112.68H403.075C402.451 112.68 401.971 113.16 401.971 113.736V132.6H397.603V114.792Z" fill="#29BD64"/>
<path d="M432.551 112.68C431.831 112.68 431.159 112.392 430.679 111.912L426.935 108.168C426.407 107.64 426.167 106.968 426.167 106.248V105.432C426.167 104.712 426.407 104.04 426.935 103.512L430.679 99.768C431.159 99.288 431.831 99 432.551 99H441.767V103.32H431.639C431.015 103.32 430.535 103.8 430.535 104.376V107.304C430.535 107.88 431.015 108.36 431.639 108.36H441.767V112.68H432.551ZM418.487 112.68V108.36H420.935C421.511 108.36 422.039 108.552 422.471 108.984L426.167 112.68H418.487ZM426.167 132.6V112.68L429.911 116.424C430.343 116.856 430.535 117.384 430.535 117.96V132.6H426.167Z" fill="#29BD64"/>
<path d="M451.05 132.6C450.33 132.6 449.658 132.312 449.178 131.832L445.434 128.088C444.906 127.56 444.666 126.888 444.666 126.168V114.792C444.666 114.072 444.906 113.4 445.434 112.872L449.178 109.128C449.658 108.648 450.33 108.36 451.05 108.36H461.322C462.042 108.36 462.714 108.648 463.194 109.128L466.938 112.872C467.466 113.4 467.706 114.072 467.706 114.792V126.168C467.706 126.888 467.466 127.56 466.938 128.088L463.194 131.832C462.714 132.312 462.042 132.6 461.322 132.6H451.05ZM449.034 127.224C449.034 127.8 449.514 128.28 450.138 128.28H462.234C462.858 128.28 463.338 127.8 463.338 127.224V113.736C463.338 113.16 462.858 112.68 462.234 112.68H450.138C449.514 112.68 449.034 113.16 449.034 113.736V127.224Z" fill="#29BD64"/>
<path d="M484.269 126.168C483.693 125.592 483.405 124.968 483.405 124.104V116.856C483.405 115.992 483.693 115.368 484.269 114.792L490.701 108.36L493.677 111.384L484.557 120.456L493.677 129.576L490.701 132.6L484.269 126.168ZM471.069 129.576L480.189 120.456L471.069 111.384L474.045 108.36L480.477 114.792C481.053 115.368 481.341 115.992 481.341 116.856V124.104C481.341 124.968 481.053 125.592 480.477 126.168L474.045 132.6L471.069 129.576Z" fill="#29BD64"/>
<path d="M239.02 163.6V150.509H240.545V163.6H239.02ZM239.795 148.259C239.483 148.259 239.216 148.154 238.994 147.944C238.773 147.728 238.662 147.469 238.662 147.168C238.662 146.867 238.773 146.611 238.994 146.401C239.216 146.185 239.483 146.077 239.795 146.077C240.108 146.077 240.375 146.185 240.597 146.401C240.818 146.611 240.929 146.867 240.929 147.168C240.929 147.469 240.818 147.728 240.597 147.944C240.375 148.154 240.108 148.259 239.795 148.259Z" fill="#29BD64"/>
<path d="M246.075 155.418V163.6H244.557V150.509H246.032V152.563H246.168C246.475 151.893 246.952 151.356 247.6 150.952C248.253 150.543 249.06 150.339 250.021 150.339C250.901 150.339 251.674 150.523 252.339 150.893C253.009 151.256 253.529 151.793 253.898 152.503C254.273 153.214 254.461 154.086 254.461 155.12V163.6H252.944V155.214C252.944 154.14 252.643 153.29 252.04 152.665C251.444 152.04 250.643 151.728 249.637 151.728C248.95 151.728 248.339 151.876 247.805 152.171C247.271 152.466 246.847 152.893 246.535 153.449C246.228 154.001 246.075 154.657 246.075 155.418Z" fill="#29BD64"/>
<path d="M263.612 150.509V151.83H257.365V150.509H263.612ZM259.317 147.373H260.842V160.182C260.842 160.728 260.936 161.157 261.124 161.469C261.311 161.776 261.555 161.995 261.856 162.126C262.158 162.251 262.479 162.313 262.82 162.313C263.018 162.313 263.189 162.302 263.331 162.279C263.473 162.251 263.598 162.222 263.706 162.194L264.03 163.566C263.882 163.623 263.7 163.674 263.484 163.719C263.268 163.77 263.001 163.796 262.683 163.796C262.126 163.796 261.589 163.674 261.072 163.43C260.561 163.185 260.141 162.822 259.811 162.339C259.481 161.856 259.317 161.256 259.317 160.54V147.373Z" fill="#29BD64"/>
<path d="M272.209 163.873C270.988 163.873 269.931 163.589 269.039 163.02C268.147 162.447 267.457 161.654 266.968 160.643C266.485 159.626 266.244 158.455 266.244 157.131C266.244 155.813 266.485 154.643 266.968 153.62C267.457 152.591 268.13 151.787 268.988 151.208C269.851 150.623 270.849 150.33 271.979 150.33C272.69 150.33 273.374 150.461 274.033 150.722C274.692 150.978 275.283 151.373 275.806 151.907C276.334 152.435 276.752 153.103 277.059 153.91C277.366 154.711 277.519 155.66 277.519 156.756V157.506H267.292V156.168H275.968C275.968 155.327 275.798 154.572 275.457 153.901C275.121 153.225 274.653 152.691 274.05 152.299C273.454 151.907 272.763 151.711 271.979 151.711C271.15 151.711 270.42 151.932 269.789 152.376C269.158 152.819 268.664 153.404 268.306 154.131C267.954 154.859 267.775 155.654 267.769 156.518V157.319C267.769 158.359 267.948 159.268 268.306 160.046C268.67 160.819 269.184 161.418 269.849 161.844C270.513 162.27 271.3 162.484 272.209 162.484C272.829 162.484 273.371 162.387 273.837 162.194C274.309 162.001 274.704 161.742 275.022 161.418C275.346 161.089 275.59 160.728 275.755 160.336L277.195 160.805C276.996 161.356 276.67 161.864 276.215 162.33C275.766 162.796 275.204 163.171 274.528 163.455C273.857 163.734 273.084 163.873 272.209 163.873Z" fill="#29BD64"/>
<path d="M280.862 163.6V150.509H282.337V152.52H282.447C282.709 151.861 283.163 151.33 283.811 150.927C284.464 150.518 285.203 150.313 286.027 150.313C286.152 150.313 286.291 150.316 286.445 150.322C286.598 150.327 286.726 150.333 286.828 150.339V151.881C286.76 151.87 286.641 151.853 286.47 151.83C286.3 151.807 286.115 151.796 285.916 151.796C285.234 151.796 284.626 151.941 284.092 152.231C283.564 152.515 283.146 152.91 282.839 153.415C282.533 153.921 282.379 154.498 282.379 155.145V163.6H280.862Z" fill="#29BD64"/>
<path d="M293.073 163.898C292.283 163.898 291.562 163.745 290.908 163.438C290.255 163.126 289.735 162.677 289.349 162.091C288.962 161.501 288.769 160.785 288.769 159.944C288.769 159.296 288.891 158.751 289.136 158.307C289.38 157.864 289.726 157.501 290.175 157.216C290.624 156.932 291.155 156.708 291.769 156.543C292.383 156.378 293.059 156.251 293.798 156.16C294.53 156.069 295.15 155.989 295.655 155.921C296.167 155.853 296.556 155.745 296.823 155.597C297.09 155.449 297.224 155.211 297.224 154.881V154.574C297.224 153.682 296.957 152.981 296.423 152.469C295.894 151.952 295.133 151.694 294.138 151.694C293.195 151.694 292.425 151.901 291.829 152.316C291.238 152.731 290.823 153.219 290.584 153.782L289.144 153.262C289.44 152.546 289.849 151.975 290.371 151.549C290.894 151.117 291.479 150.807 292.127 150.62C292.775 150.427 293.431 150.33 294.096 150.33C294.596 150.33 295.116 150.395 295.655 150.526C296.201 150.657 296.707 150.884 297.173 151.208C297.638 151.526 298.016 151.972 298.306 152.546C298.596 153.114 298.741 153.836 298.741 154.711V163.6H297.224V161.529H297.13C296.948 161.915 296.678 162.29 296.32 162.654C295.962 163.018 295.513 163.316 294.974 163.549C294.434 163.782 293.8 163.898 293.073 163.898ZM293.278 162.509C294.084 162.509 294.783 162.33 295.374 161.972C295.965 161.614 296.42 161.14 296.738 160.549C297.062 159.952 297.224 159.296 297.224 158.58V156.688C297.11 156.796 296.92 156.893 296.653 156.978C296.391 157.063 296.087 157.14 295.741 157.208C295.4 157.27 295.059 157.324 294.718 157.37C294.377 157.415 294.07 157.455 293.798 157.489C293.059 157.58 292.428 157.722 291.905 157.915C291.383 158.109 290.982 158.376 290.704 158.716C290.425 159.052 290.286 159.484 290.286 160.012C290.286 160.807 290.57 161.424 291.138 161.861C291.707 162.293 292.42 162.509 293.278 162.509Z" fill="#29BD64"/>
<path d="M307.89 163.873C306.719 163.873 305.7 163.58 304.83 162.995C303.967 162.41 303.296 161.609 302.819 160.591C302.342 159.574 302.103 158.415 302.103 157.114C302.103 155.802 302.344 154.634 302.827 153.611C303.316 152.589 303.992 151.787 304.856 151.208C305.719 150.623 306.722 150.33 307.864 150.33C308.739 150.33 309.532 150.501 310.242 150.841C310.952 151.177 311.538 151.651 311.998 152.265C312.464 152.873 312.756 153.583 312.876 154.395H311.342C311.182 153.657 310.799 153.026 310.191 152.503C309.589 151.975 308.822 151.711 307.89 151.711C307.055 151.711 306.316 151.938 305.674 152.393C305.032 152.841 304.529 153.469 304.165 154.276C303.807 155.077 303.628 156.006 303.628 157.063C303.628 158.126 303.805 159.066 304.157 159.884C304.509 160.697 305.003 161.333 305.64 161.793C306.282 162.253 307.032 162.484 307.89 162.484C308.469 162.484 308.998 162.376 309.475 162.16C309.958 161.938 310.361 161.626 310.685 161.222C311.015 160.819 311.236 160.339 311.35 159.782H312.884C312.771 160.572 312.489 161.276 312.04 161.895C311.597 162.509 311.021 162.992 310.31 163.344C309.606 163.697 308.799 163.873 307.89 163.873Z" fill="#29BD64"/>
<path d="M321.292 150.509V151.83H315.045V150.509H321.292ZM316.996 147.373H318.522V160.182C318.522 160.728 318.616 161.157 318.803 161.469C318.991 161.776 319.235 161.995 319.536 162.126C319.837 162.251 320.158 162.313 320.499 162.313C320.698 162.313 320.869 162.302 321.011 162.279C321.153 162.251 321.278 162.222 321.386 162.194L321.709 163.566C321.562 163.623 321.38 163.674 321.164 163.719C320.948 163.77 320.681 163.796 320.363 163.796C319.806 163.796 319.269 163.674 318.752 163.43C318.241 163.185 317.82 162.822 317.491 162.339C317.161 161.856 316.996 161.256 316.996 160.54V147.373Z" fill="#29BD64"/>
<path d="M324.754 163.6V150.509H326.28V163.6H324.754ZM325.53 148.259C325.217 148.259 324.95 148.154 324.729 147.944C324.507 147.728 324.396 147.469 324.396 147.168C324.396 146.867 324.507 146.611 324.729 146.401C324.95 146.185 325.217 146.077 325.53 146.077C325.842 146.077 326.109 146.185 326.331 146.401C326.552 146.611 326.663 146.867 326.663 147.168C326.663 147.469 326.552 147.728 326.331 147.944C326.109 148.154 325.842 148.259 325.53 148.259Z" fill="#29BD64"/>
<path d="M340.425 150.509L335.644 163.6H334.025L329.244 150.509H330.888L334.775 161.597H334.894L338.78 150.509H340.425Z" fill="#29BD64"/>
<path d="M348.217 163.873C346.996 163.873 345.939 163.589 345.047 163.02C344.155 162.447 343.464 161.654 342.976 160.643C342.493 159.626 342.251 158.455 342.251 157.131C342.251 155.813 342.493 154.643 342.976 153.62C343.464 152.591 344.138 151.787 344.996 151.208C345.859 150.623 346.856 150.33 347.987 150.33C348.697 150.33 349.382 150.461 350.041 150.722C350.7 150.978 351.291 151.373 351.814 151.907C352.342 152.435 352.76 153.103 353.067 153.91C353.374 154.711 353.527 155.66 353.527 156.756V157.506H343.3V156.168H351.976C351.976 155.327 351.805 154.572 351.464 153.901C351.129 153.225 350.66 152.691 350.058 152.299C349.462 151.907 348.771 151.711 347.987 151.711C347.158 151.711 346.427 151.932 345.797 152.376C345.166 152.819 344.672 153.404 344.314 154.131C343.962 154.859 343.783 155.654 343.777 156.518V157.319C343.777 158.359 343.956 159.268 344.314 160.046C344.677 160.819 345.192 161.418 345.856 161.844C346.521 162.27 347.308 162.484 348.217 162.484C348.837 162.484 349.379 162.387 349.845 162.194C350.317 162.001 350.712 161.742 351.03 161.418C351.354 161.089 351.598 160.728 351.763 160.336L353.203 160.805C353.004 161.356 352.677 161.864 352.223 162.33C351.774 162.796 351.212 163.171 350.535 163.455C349.865 163.734 349.092 163.873 348.217 163.873Z" fill="#29BD64"/>
<line x1="212.5" y1="173" x2="212.5" y2="90" stroke="#29BD64"/>
</svg>
