<svg width="517" height="209" viewBox="0 0 517 209" fill="none" xmlns="http://www.w3.org/2000/svg">
<path fill-rule="evenodd" clip-rule="evenodd" d="M83.8782 23L67.9917 83.3191L107.701 52.2089L83.1825 119.702C96.9794 123.141 105.549 124.122 119.887 123.926C120.474 123.907 121.056 123.897 121.631 123.897L121.664 127.375C121.091 127.386 120.526 127.395 119.969 127.403C112.324 127.658 103.584 129.689 95.6218 134.453C99.3304 134.829 102.983 135.534 106.814 136.872C112.384 138.818 118.242 142.072 125.173 147.46C136.921 156.592 142.154 166.093 144.457 173.797C148.354 160.067 157.822 150.418 161.763 146.401C162.079 146.08 162.359 145.794 162.598 145.546L165.591 142.434V146.751C165.591 151.834 167.21 156.481 169.934 164.198L169.972 164.306C170.195 164.937 170.421 165.576 170.65 166.221C171.452 168.483 172.279 170.814 173.034 173.078C174.103 159.595 176.738 150.598 179.01 142.843C179.878 139.876 180.694 137.09 181.349 134.305C184.062 122.759 184.256 110.554 173.821 83.2849L164.043 96.7888L152.692 85.0326L156.347 104.935L140.843 113.599C145.282 116.364 148.967 117.409 152.262 117.682C155.423 117.944 158.254 117.514 161.291 117.051C162.05 116.936 162.822 116.818 163.615 116.709L164.089 120.155C163.399 120.25 162.695 120.357 161.979 120.467C158.905 120.938 155.583 121.447 151.974 121.148C147.421 120.77 142.447 119.135 136.507 114.877L134.281 113.282L152.477 103.114L147.189 74.327L163.661 91.3865L174.737 76.0907L175.902 79.041C187.654 108.796 187.762 122.216 184.734 135.101C184.039 138.06 183.193 140.952 182.305 143.988C179.391 153.946 176.024 165.456 176.024 186H172.546C172.546 183.931 171.816 180.805 170.666 177.073C169.719 174.001 168.539 170.673 167.38 167.405C167.149 166.755 166.919 166.107 166.692 165.464L166.575 165.13C164.566 159.439 163.02 155.059 162.404 150.746C156.59 156.886 146.214 169.292 146.214 186H142.737C142.737 179.723 141.51 165.861 125.526 152.23C125.32 153.378 125.029 154.522 124.689 155.682C124.336 156.889 123.894 158.227 123.431 159.628C123.053 160.77 122.662 161.955 122.294 163.144C120.595 168.631 118.971 175.616 118.971 185.958H115.439C114.441 179.217 113.164 172.216 110.363 166.732C108.976 164.016 107.263 161.846 105.117 160.406C102.997 158.984 100.342 158.197 96.9034 158.423C87.6828 159.027 74.6719 166.498 71.7064 185.972H68.2196C68.5945 162.521 75.2834 147.112 85.7433 137.503C84.7972 137.496 83.8265 137.492 82.8299 137.489C78.2548 137.472 73.1362 137.453 67.3588 137.059L65.3715 136.923L71.377 107.82L28.2445 136.575L53.5659 78.4846L23 99.0289L44.2202 53.721L83.8782 23ZM89.8828 134.097C94.2647 130.873 98.9589 128.531 103.666 126.911C96.3692 126.256 89.5172 124.921 80.4598 122.601L78.6022 122.125L100.286 62.4366L61.9943 92.4357L77.9044 32.0267L47.0136 55.9563L31.4688 89.1465L61.5153 68.9513L36.1607 127.118L76.4946 100.228L69.5852 133.712C74.4553 133.983 78.6693 133.996 82.5999 134.008C85.1108 134.015 87.5061 134.023 89.8828 134.097ZM90.9923 137.617C82.2894 144.375 75.9637 155.092 73.0419 171.451C79.3046 160.42 88.773 155.47 96.6759 154.952C100.814 154.681 104.245 155.633 107.054 157.518C109.838 159.385 111.897 162.09 113.46 165.15C114.685 167.547 115.634 170.224 116.394 172.997C117.072 168.72 118.022 165.182 118.971 162.116C119.395 160.749 119.793 159.547 120.165 158.425C120.599 157.119 120.995 155.923 121.351 154.706C121.888 152.87 122.246 151.248 122.341 149.668C115.939 144.775 110.616 141.885 105.666 140.155C100.742 138.435 96.1021 137.833 90.9923 137.617Z" fill="#29BD64"/>
<path d="M244.776 136C244.344 136 243.912 135.808 243.576 135.472L239.832 131.728C239.592 131.488 239.4 131.152 239.4 130.768V116.8H243.768V131.68L253.512 121.936L256.536 124.912L245.976 135.472C245.64 135.808 245.208 136 244.776 136ZM239.4 109.648V104.752H243.768V110.704C243.768 111.28 244.248 111.76 244.872 111.76H256.104V116.08H245.4C244.68 116.08 244.392 115.792 243.912 115.312L240.168 111.568C239.64 111.04 239.4 110.368 239.4 109.648Z" fill="#29BD64"/>
<path d="M278.785 136V116.08L268.849 126.016L265.825 123.04L276.577 112.288C276.913 111.952 277.345 111.76 277.777 111.76C278.209 111.76 278.641 111.952 278.977 112.288L282.721 116.032C282.961 116.272 283.153 116.608 283.153 116.992V136H278.785ZM260.353 136V102.4H264.721V136H260.353Z" fill="#29BD64"/>
<path d="M293.338 136C292.906 136 292.474 135.808 292.138 135.472L288.394 131.728C288.154 131.488 287.962 131.152 287.962 130.768V111.76H292.33V131.68L302.074 121.936L305.098 124.912L294.538 135.472C294.202 135.808 293.77 136 293.338 136ZM306.202 136V111.76H310.57V136H306.202Z" fill="#29BD64"/>
<path d="M333.816 136V116.08L323.88 126.016L320.856 123.04L331.608 112.288C331.944 111.952 332.376 111.76 332.808 111.76C333.24 111.76 333.672 111.952 334.008 112.288L337.752 116.032C337.992 116.272 338.184 116.608 338.184 116.992V136H333.816ZM315.384 136V111.76H319.752V136H315.384Z" fill="#29BD64"/>
<path d="M349.378 136C348.658 136 347.986 135.712 347.506 135.232L343.762 131.488C343.234 130.96 342.994 130.288 342.994 129.568V116.992C342.994 116.608 343.186 116.272 343.426 116.032L347.17 112.288C347.506 111.952 347.938 111.76 348.37 111.76C348.802 111.76 349.234 111.952 349.57 112.288L360.898 123.616L357.874 126.592L347.362 116.08V130.624C347.362 131.2 347.842 131.68 348.466 131.68H361.378C362.002 131.68 362.482 131.2 362.482 130.624V102.4H366.85V129.568C366.85 130.288 366.61 130.96 366.082 131.488L362.338 135.232C361.858 135.712 361.186 136 360.466 136H349.378Z" fill="#29BD64"/>
<path d="M378.018 136C377.298 136 376.626 135.712 376.146 135.232L372.402 131.488C371.874 130.96 371.634 130.288 371.634 129.568V118.192C371.634 117.472 371.874 116.8 372.402 116.272L376.146 112.528C376.626 112.048 377.298 111.76 378.018 111.76H388.53C388.914 111.76 389.25 111.952 389.49 112.192L393.234 115.936C393.57 116.272 393.762 116.704 393.762 117.136C393.762 117.568 393.57 118 393.234 118.336L381.954 129.616L378.93 126.64L389.49 116.08H377.106C376.482 116.08 376.002 116.56 376.002 117.136V130.624C376.002 131.2 376.482 131.68 377.106 131.68H392.658V136H378.018Z" fill="#29BD64"/>
<path d="M397.603 118.192C397.603 117.472 397.843 116.8 398.371 116.272L402.115 112.528C402.595 112.048 403.267 111.76 403.987 111.76H415.603V116.08H403.075C402.451 116.08 401.971 116.56 401.971 117.136V136H397.603V118.192Z" fill="#29BD64"/>
<path d="M432.551 116.08C431.831 116.08 431.159 115.792 430.679 115.312L426.935 111.568C426.407 111.04 426.167 110.368 426.167 109.648V108.832C426.167 108.112 426.407 107.44 426.935 106.912L430.679 103.168C431.159 102.688 431.831 102.4 432.551 102.4H441.767V106.72H431.639C431.015 106.72 430.535 107.2 430.535 107.776V110.704C430.535 111.28 431.015 111.76 431.639 111.76H441.767V116.08H432.551ZM418.487 116.08V111.76H420.935C421.511 111.76 422.039 111.952 422.471 112.384L426.167 116.08H418.487ZM426.167 136V116.08L429.911 119.824C430.343 120.256 430.535 120.784 430.535 121.36V136H426.167Z" fill="#29BD64"/>
<path d="M451.05 136C450.33 136 449.658 135.712 449.178 135.232L445.434 131.488C444.906 130.96 444.666 130.288 444.666 129.568V118.192C444.666 117.472 444.906 116.8 445.434 116.272L449.178 112.528C449.658 112.048 450.33 111.76 451.05 111.76H461.322C462.042 111.76 462.714 112.048 463.194 112.528L466.938 116.272C467.466 116.8 467.706 117.472 467.706 118.192V129.568C467.706 130.288 467.466 130.96 466.938 131.488L463.194 135.232C462.714 135.712 462.042 136 461.322 136H451.05ZM449.034 130.624C449.034 131.2 449.514 131.68 450.138 131.68H462.234C462.858 131.68 463.338 131.2 463.338 130.624V117.136C463.338 116.56 462.858 116.08 462.234 116.08H450.138C449.514 116.08 449.034 116.56 449.034 117.136V130.624Z" fill="#29BD64"/>
<path d="M484.269 129.568C483.693 128.992 483.405 128.368 483.405 127.504V120.256C483.405 119.392 483.693 118.768 484.269 118.192L490.701 111.76L493.677 114.784L484.557 123.856L493.677 132.976L490.701 136L484.269 129.568ZM471.069 132.976L480.189 123.856L471.069 114.784L474.045 111.76L480.477 118.192C481.053 118.768 481.341 119.392 481.341 120.256V127.504C481.341 128.368 481.053 128.992 480.477 129.568L474.045 136L471.069 132.976Z" fill="#29BD64"/>
<path d="M239.02 167V153.909H240.545V167H239.02ZM239.795 151.659C239.483 151.659 239.216 151.554 238.994 151.344C238.773 151.128 238.662 150.869 238.662 150.568C238.662 150.267 238.773 150.011 238.994 149.801C239.216 149.585 239.483 149.477 239.795 149.477C240.108 149.477 240.375 149.585 240.597 149.801C240.818 150.011 240.929 150.267 240.929 150.568C240.929 150.869 240.818 151.128 240.597 151.344C240.375 151.554 240.108 151.659 239.795 151.659Z" fill="#29BD64"/>
<path d="M246.075 158.818V167H244.557V153.909H246.032V155.963H246.168C246.475 155.293 246.952 154.756 247.6 154.352C248.253 153.943 249.06 153.739 250.021 153.739C250.901 153.739 251.674 153.923 252.339 154.293C253.009 154.656 253.529 155.193 253.898 155.903C254.273 156.614 254.461 157.486 254.461 158.52V167H252.944V158.614C252.944 157.54 252.643 156.69 252.04 156.065C251.444 155.44 250.643 155.128 249.637 155.128C248.95 155.128 248.339 155.276 247.805 155.571C247.271 155.866 246.847 156.293 246.535 156.849C246.228 157.401 246.075 158.057 246.075 158.818Z" fill="#29BD64"/>
<path d="M263.612 153.909V155.23H257.365V153.909H263.612ZM259.317 150.773H260.842V163.582C260.842 164.128 260.936 164.557 261.124 164.869C261.311 165.176 261.555 165.395 261.856 165.526C262.158 165.651 262.479 165.713 262.82 165.713C263.018 165.713 263.189 165.702 263.331 165.679C263.473 165.651 263.598 165.622 263.706 165.594L264.03 166.966C263.882 167.023 263.7 167.074 263.484 167.119C263.268 167.17 263.001 167.196 262.683 167.196C262.126 167.196 261.589 167.074 261.072 166.83C260.561 166.585 260.141 166.222 259.811 165.739C259.481 165.256 259.317 164.656 259.317 163.94V150.773Z" fill="#29BD64"/>
<path d="M272.209 167.273C270.988 167.273 269.931 166.989 269.039 166.42C268.147 165.847 267.457 165.054 266.968 164.043C266.485 163.026 266.244 161.855 266.244 160.531C266.244 159.213 266.485 158.043 266.968 157.02C267.457 155.991 268.13 155.187 268.988 154.608C269.851 154.023 270.849 153.73 271.979 153.73C272.69 153.73 273.374 153.861 274.033 154.122C274.692 154.378 275.283 154.773 275.806 155.307C276.334 155.835 276.752 156.503 277.059 157.31C277.366 158.111 277.519 159.06 277.519 160.156V160.906H267.292V159.568H275.968C275.968 158.727 275.798 157.972 275.457 157.301C275.121 156.625 274.653 156.091 274.05 155.699C273.454 155.307 272.763 155.111 271.979 155.111C271.15 155.111 270.42 155.332 269.789 155.776C269.158 156.219 268.664 156.804 268.306 157.531C267.954 158.259 267.775 159.054 267.769 159.918V160.719C267.769 161.759 267.948 162.668 268.306 163.446C268.67 164.219 269.184 164.818 269.849 165.244C270.513 165.67 271.3 165.884 272.209 165.884C272.829 165.884 273.371 165.787 273.837 165.594C274.309 165.401 274.704 165.142 275.022 164.818C275.346 164.489 275.59 164.128 275.755 163.736L277.195 164.205C276.996 164.756 276.67 165.264 276.215 165.73C275.766 166.196 275.204 166.571 274.528 166.855C273.857 167.134 273.084 167.273 272.209 167.273Z" fill="#29BD64"/>
<path d="M280.862 167V153.909H282.337V155.92H282.447C282.709 155.261 283.163 154.73 283.811 154.327C284.464 153.918 285.203 153.713 286.027 153.713C286.152 153.713 286.291 153.716 286.445 153.722C286.598 153.727 286.726 153.733 286.828 153.739V155.281C286.76 155.27 286.641 155.253 286.47 155.23C286.3 155.207 286.115 155.196 285.916 155.196C285.234 155.196 284.626 155.341 284.092 155.631C283.564 155.915 283.146 156.31 282.839 156.815C282.533 157.321 282.379 157.898 282.379 158.545V167H280.862Z" fill="#29BD64"/>
<path d="M293.073 167.298C292.283 167.298 291.562 167.145 290.908 166.838C290.255 166.526 289.735 166.077 289.349 165.491C288.962 164.901 288.769 164.185 288.769 163.344C288.769 162.696 288.891 162.151 289.136 161.707C289.38 161.264 289.726 160.901 290.175 160.616C290.624 160.332 291.155 160.108 291.769 159.943C292.383 159.778 293.059 159.651 293.798 159.56C294.53 159.469 295.15 159.389 295.655 159.321C296.167 159.253 296.556 159.145 296.823 158.997C297.09 158.849 297.224 158.611 297.224 158.281V157.974C297.224 157.082 296.957 156.381 296.423 155.869C295.894 155.352 295.133 155.094 294.138 155.094C293.195 155.094 292.425 155.301 291.829 155.716C291.238 156.131 290.823 156.619 290.584 157.182L289.144 156.662C289.44 155.946 289.849 155.375 290.371 154.949C290.894 154.517 291.479 154.207 292.127 154.02C292.775 153.827 293.431 153.73 294.096 153.73C294.596 153.73 295.116 153.795 295.655 153.926C296.201 154.057 296.707 154.284 297.173 154.608C297.638 154.926 298.016 155.372 298.306 155.946C298.596 156.514 298.741 157.236 298.741 158.111V167H297.224V164.929H297.13C296.948 165.315 296.678 165.69 296.32 166.054C295.962 166.418 295.513 166.716 294.974 166.949C294.434 167.182 293.8 167.298 293.073 167.298ZM293.278 165.909C294.084 165.909 294.783 165.73 295.374 165.372C295.965 165.014 296.42 164.54 296.738 163.949C297.062 163.352 297.224 162.696 297.224 161.98V160.088C297.11 160.196 296.92 160.293 296.653 160.378C296.391 160.463 296.087 160.54 295.741 160.608C295.4 160.67 295.059 160.724 294.718 160.77C294.377 160.815 294.07 160.855 293.798 160.889C293.059 160.98 292.428 161.122 291.905 161.315C291.383 161.509 290.982 161.776 290.704 162.116C290.425 162.452 290.286 162.884 290.286 163.412C290.286 164.207 290.57 164.824 291.138 165.261C291.707 165.693 292.42 165.909 293.278 165.909Z" fill="#29BD64"/>
<path d="M307.89 167.273C306.719 167.273 305.7 166.98 304.83 166.395C303.967 165.81 303.296 165.009 302.819 163.991C302.342 162.974 302.103 161.815 302.103 160.514C302.103 159.202 302.344 158.034 302.827 157.011C303.316 155.989 303.992 155.187 304.856 154.608C305.719 154.023 306.722 153.73 307.864 153.73C308.739 153.73 309.532 153.901 310.242 154.241C310.952 154.577 311.538 155.051 311.998 155.665C312.464 156.273 312.756 156.983 312.876 157.795H311.342C311.182 157.057 310.799 156.426 310.191 155.903C309.589 155.375 308.822 155.111 307.89 155.111C307.055 155.111 306.316 155.338 305.674 155.793C305.032 156.241 304.529 156.869 304.165 157.676C303.807 158.477 303.628 159.406 303.628 160.463C303.628 161.526 303.805 162.466 304.157 163.284C304.509 164.097 305.003 164.733 305.64 165.193C306.282 165.653 307.032 165.884 307.89 165.884C308.469 165.884 308.998 165.776 309.475 165.56C309.958 165.338 310.361 165.026 310.685 164.622C311.015 164.219 311.236 163.739 311.35 163.182H312.884C312.771 163.972 312.489 164.676 312.04 165.295C311.597 165.909 311.021 166.392 310.31 166.744C309.606 167.097 308.799 167.273 307.89 167.273Z" fill="#29BD64"/>
<path d="M321.292 153.909V155.23H315.045V153.909H321.292ZM316.996 150.773H318.522V163.582C318.522 164.128 318.616 164.557 318.803 164.869C318.991 165.176 319.235 165.395 319.536 165.526C319.837 165.651 320.158 165.713 320.499 165.713C320.698 165.713 320.869 165.702 321.011 165.679C321.153 165.651 321.278 165.622 321.386 165.594L321.709 166.966C321.562 167.023 321.38 167.074 321.164 167.119C320.948 167.17 320.681 167.196 320.363 167.196C319.806 167.196 319.269 167.074 318.752 166.83C318.241 166.585 317.82 166.222 317.491 165.739C317.161 165.256 316.996 164.656 316.996 163.94V150.773Z" fill="#29BD64"/>
<path d="M324.754 167V153.909H326.28V167H324.754ZM325.53 151.659C325.217 151.659 324.95 151.554 324.729 151.344C324.507 151.128 324.396 150.869 324.396 150.568C324.396 150.267 324.507 150.011 324.729 149.801C324.95 149.585 325.217 149.477 325.53 149.477C325.842 149.477 326.109 149.585 326.331 149.801C326.552 150.011 326.663 150.267 326.663 150.568C326.663 150.869 326.552 151.128 326.331 151.344C326.109 151.554 325.842 151.659 325.53 151.659Z" fill="#29BD64"/>
<path d="M340.425 153.909L335.644 167H334.025L329.244 153.909H330.888L334.775 164.997H334.894L338.78 153.909H340.425Z" fill="#29BD64"/>
<path d="M348.217 167.273C346.996 167.273 345.939 166.989 345.047 166.42C344.155 165.847 343.464 165.054 342.976 164.043C342.493 163.026 342.251 161.855 342.251 160.531C342.251 159.213 342.493 158.043 342.976 157.02C343.464 155.991 344.138 155.187 344.996 154.608C345.859 154.023 346.856 153.73 347.987 153.73C348.697 153.73 349.382 153.861 350.041 154.122C350.7 154.378 351.291 154.773 351.814 155.307C352.342 155.835 352.76 156.503 353.067 157.31C353.374 158.111 353.527 159.06 353.527 160.156V160.906H343.3V159.568H351.976C351.976 158.727 351.805 157.972 351.464 157.301C351.129 156.625 350.66 156.091 350.058 155.699C349.462 155.307 348.771 155.111 347.987 155.111C347.158 155.111 346.427 155.332 345.797 155.776C345.166 156.219 344.672 156.804 344.314 157.531C343.962 158.259 343.783 159.054 343.777 159.918V160.719C343.777 161.759 343.956 162.668 344.314 163.446C344.677 164.219 345.192 164.818 345.856 165.244C346.521 165.67 347.308 165.884 348.217 165.884C348.837 165.884 349.379 165.787 349.845 165.594C350.317 165.401 350.712 165.142 351.03 164.818C351.354 164.489 351.598 164.128 351.763 163.736L353.203 164.205C353.004 164.756 352.677 165.264 352.223 165.73C351.774 166.196 351.212 166.571 350.535 166.855C349.865 167.134 349.092 167.273 348.217 167.273Z" fill="#29BD64"/>
<line x1="212.5" y1="173" x2="212.5" y2="90" stroke="#29BD64"/>
</svg>
